<?xml version="1.0" encoding="UTF-8" standalone="no"?>
<!DOCTYPE svg PUBLIC "-//W3C//DTD SVG 1.1//EN" "http://www.w3.org/Graphics/SVG/1.1/DTD/svg11.dtd">
<svg width="100%" height="100%" viewBox="0 0 1472 251" version="1.1" xmlns="http://www.w3.org/2000/svg" xmlns:xlink="http://www.w3.org/1999/xlink" xml:space="preserve" xmlns:serif="http://www.serif.com/" style="fill-rule:evenodd;clip-rule:evenodd;stroke-linejoin:round;stroke-miterlimit:2;">
    <g transform="matrix(0.029336,0,0,0.029336,125.166667,125.166667)">
        <g transform="matrix(1,0,0,1,-4266.666667,-4266.666667)">
            <g transform="matrix(4.166667,0,0,4.166667,0,0)">
                <path d="M524.803,432.928C479.582,364.747 467.895,305.514 484.289,225.188C492.538,184.773 515.359,120.785 568.906,130.48C608.936,140.571 649.396,195.553 671.292,229.003C682.554,246.516 692.552,266.739 701.61,284.758C709.679,279.922 730.877,273.006 740.529,270.332C816.998,249.145 899.555,253.279 976.021,272.262C998.71,277.894 1014.81,283.75 1036.38,291.241C1042.25,275.275 1049.14,258.239 1058.66,244.277C1084.43,206.503 1123.16,164.884 1164.62,145.118C1213.53,121.798 1252.96,135.532 1272.77,186.543C1293.77,240.625 1294.65,317.833 1273.14,370.762C1272.43,372.525 1271.69,374.28 1270.93,376.026C1342.99,316.486 1436.01,288.515 1528.96,298.439C1632.11,308.561 1716.63,353.474 1783.42,433.619C1894.79,567.242 1909.38,795.222 1768.02,914.026C1726.37,949.029 1671.86,966.772 1617.68,961.324C1609.72,960.557 1592.39,958.314 1584.96,955.6C1630.31,1063.87 1670.33,1168.85 1667.99,1288.24C1667.48,1313.94 1665.1,1351.93 1659.27,1376.9C1658.46,1380.87 1657.72,1386.89 1656.79,1390.31C1656.67,1390.64 1656.56,1390.98 1656.44,1391.31C1632.35,1508.34 1563.86,1614.29 1458.06,1673.36C1377.59,1718.28 1305.12,1724.18 1214.49,1713.19C1213.65,1719.4 1211.75,1728.18 1212.32,1733.87C1215.1,1736.19 1223.05,1737.2 1226.96,1738.1C1281.8,1750.67 1327.1,1790.69 1340.77,1846.94C1346.55,1842.49 1354.36,1844.57 1361.23,1845.46C1387.78,1848.9 1488.58,1861.35 1502.85,1879.16C1504.54,1881.26 1505.64,1884.02 1504.95,1886.73C1503.59,1892.1 1496.81,1895.5 1492.21,1897.5C1473.11,1905.79 1449.96,1909.07 1429.5,1912.57C1368.11,1922.57 1306.25,1929.4 1244.16,1933.04C1105.55,1939.85 966.743,1941.6 828.01,1938.27C752.497,1937.06 677.011,1934.52 601.587,1930.65C536.22,1927.13 472.753,1923.42 407.497,1912.12C382.345,1907.77 276.638,1889.85 365.632,1864.52C377.234,1861.22 414.603,1852.61 425.299,1853.37C429.117,1858.02 425.984,1865.11 431.739,1868.09L432.438,1867.88C430.621,1862.56 429.348,1857.07 428.638,1851.49C425.725,1826.67 437.649,1794.57 453.679,1775.9C481.751,1743.22 521.421,1730.86 562.4,1726.69C556.078,1719.26 548.926,1707.69 543.711,1699.16C512.511,1648.09 496.645,1592.91 492.873,1533.43C490.253,1517.24 491.969,1468.72 494.052,1452.57C492.819,1438.75 502.155,1385.28 505.682,1371.21C497.08,1368.85 486.892,1366.66 478.175,1364.7C402.112,1347.65 369.307,1273.01 390.732,1201.12C417.63,1110.87 500.657,1035.43 579.621,989.413C572.639,984.723 558.374,979.042 550.134,975.118C529.344,965.218 486.283,941.785 470.809,925.822C463.878,921.041 457.958,915.311 452.094,909.323C413.782,874.977 390.962,831.187 387.997,779.53C385.203,733.989 400.81,689.232 431.314,655.301C440.924,644.831 451.381,635.171 462.579,626.419C467.61,567.887 478.691,515.485 506.514,462.925C511.165,454.139 518.965,440.516 524.803,432.928Z" style="fill:rgb(23,34,34);fill-rule:nonzero;"/>
            </g>
            <g transform="matrix(4.166667,0,0,4.166667,0,0)">
                <path d="M821.768,1828.1C839.095,1829.75 859.908,1829.06 877.639,1829.01L958.781,1829.21C973.627,1829.33 997.054,1828.49 1010.48,1832.2L1011.48,1829.47C1014.51,1832.32 1012.94,1834.47 1016.32,1837.34L1017.48,1837.04C1031.36,1863.19 1018.66,1882.59 1057.09,1894.99C1078.98,1902.05 1101.62,1906.5 1124.38,1909.39C1160.92,1914.03 1326.47,1929.88 1340.57,1886.25C1338.5,1880.59 1340.27,1859.94 1341.81,1853.88C1341.84,1851.43 1341.25,1849.37 1340.77,1846.94C1346.55,1842.49 1354.36,1844.57 1361.23,1845.46C1387.78,1848.9 1488.58,1861.35 1502.85,1879.16C1504.54,1881.26 1505.64,1884.02 1504.95,1886.73C1503.59,1892.1 1496.81,1895.5 1492.21,1897.5C1473.11,1905.79 1449.96,1909.07 1429.5,1912.57C1368.11,1922.57 1306.25,1929.4 1244.16,1933.04C1105.55,1939.85 966.743,1941.6 828.01,1938.27C752.497,1937.06 677.011,1934.52 601.587,1930.65C536.22,1927.13 472.753,1923.42 407.497,1912.12C382.345,1907.77 276.638,1889.85 365.632,1864.52C377.234,1861.22 414.603,1852.61 425.299,1853.37C429.117,1858.02 425.984,1865.11 431.739,1868.09L432.438,1867.88C432.575,1868.11 432.718,1868.34 432.85,1868.57C434.095,1870.81 435.254,1873.21 436.751,1875.3C447.226,1889.9 468.374,1893.07 484.871,1895.85C544.036,1905.81 753.699,1907.79 799.522,1874.44C808.934,1867.59 817.849,1855.87 819.551,1844.16C822,1837.22 821.811,1835.24 821.768,1828.1Z" style="fill:rgb(244,238,226);fill-rule:nonzero;"/>
            </g>
            <g transform="matrix(4.166667,0,0,4.166667,0,0)">
                <path d="M1341.81,1853.88C1344.39,1864.79 1345.02,1875.59 1340.57,1886.25C1338.5,1880.59 1340.27,1859.94 1341.81,1853.88Z" style="fill:rgb(18,20,20);fill-rule:nonzero;"/>
            </g>
            <g transform="matrix(4.166667,0,0,4.166667,0,0)">
                <path d="M820.175,1821.68L820.099,1820.33C818.625,1796.24 812.127,1766.22 809.705,1741.7C808.766,1732.2 806.03,1720.05 806.308,1710.74C810.818,1709.37 825.755,1712.59 831.341,1713.35C861.638,1717.46 895.439,1716.94 925.62,1711.61C945.049,1738.77 1008.69,1812.45 1017.48,1837.04L1016.32,1837.34C1012.94,1834.47 1014.51,1832.32 1011.48,1829.47L1010.48,1832.2C997.054,1828.49 973.627,1829.33 958.781,1829.21L877.639,1829.01C859.908,1829.06 839.095,1829.75 821.768,1828.1L820.175,1821.68Z" style="fill:rgb(255,253,244);fill-rule:nonzero;"/>
            </g>
            <g transform="matrix(4.166667,0,0,4.166667,0,0)">
                <path d="M494.052,1452.57C497.527,1457.45 497.683,1526.01 492.873,1533.43C490.253,1517.24 491.969,1468.72 494.052,1452.57Z" style="fill:rgb(22,31,29);fill-rule:nonzero;"/>
            </g>
            <g transform="matrix(4.166667,0,0,4.166667,0,0)">
                <path d="M452.094,909.323C459.824,907.869 470.657,918.22 470.809,925.822C463.878,921.041 457.958,915.311 452.094,909.323Z" style="fill:rgb(18,20,20);fill-rule:nonzero;"/>
            </g>
            <g transform="matrix(4.166667,0,0,4.166667,0,0)">
                <path d="M1656.79,1390.31L1655.38,1382.51L1654.88,1381.96C1653.88,1377.94 1654.15,1371.26 1655.89,1367.53L1656.48,1367.44L1655.86,1369.07L1657.84,1369.9C1658.91,1372.89 1658.89,1373.78 1659.27,1376.9C1658.46,1380.87 1657.72,1386.89 1656.79,1390.31Z" style="fill:rgb(22,31,29);fill-rule:nonzero;"/>
            </g>
            <g transform="matrix(4.166667,0,0,4.166667,0,0)">
                <path d="M820.175,1821.68L821.768,1828.1C821.811,1835.24 822,1837.22 819.551,1844.16C817.699,1833.66 817.857,1831.62 820.175,1821.68Z" style="fill:rgb(18,20,20);fill-rule:nonzero;"/>
            </g>
            <g transform="matrix(4.166667,0,0,4.166667,0,0)">
                <path d="M1047.41,344.664C1051.29,331.44 1059.27,306.934 1065.94,294.986C1089.36,253.033 1126.04,210.631 1167.8,186.161C1176.89,180.833 1202.63,170.366 1212.82,172.268C1224.04,174.363 1238.44,195.827 1243.53,206.11C1264.49,248.483 1258.48,310.133 1244.87,353.747C1235.38,384.141 1210.62,423.846 1184.61,442.235C1180.94,437.038 1176.72,431.34 1173.25,426.082C1166.26,418.262 1152.98,402.227 1147.38,394.023C1153.53,358.055 1162.57,322.642 1174.43,288.133C1179.37,273.566 1185.75,259.146 1190.45,244.822L1189.18,243.848C1190.92,238.794 1190.21,237.091 1187.36,232.95C1156.93,271.413 1134.86,315.808 1122.58,363.293C1121.36,368.187 1117.65,385.668 1118.09,390.416C1126.6,403.261 1117.34,405.515 1120.43,413.932C1123.35,419.423 1135.04,431.542 1139.71,436.607C1184.5,485.217 1199.49,550.13 1209.76,613.443C1212.16,628.291 1212.8,647.379 1216.27,661.397C1253.98,699.225 1277.95,736.233 1277.77,792.347C1277.76,794.893 1277.71,797.438 1277.63,799.983C1268.24,793.684 1255.64,784.886 1245.85,780.073C1247.39,918.708 1100.96,972.945 988.821,1001.44C988.177,1003.73 987.404,1006.09 987.041,1008.42C1003.85,1009.44 1020.71,1009.25 1037.49,1007.88C1045.9,1007.24 1076.86,1000.77 1081.59,1002.61C1132.89,1023.59 1155.71,1086.74 1151.44,1138.76C1148.06,1180.01 1131.85,1216.95 1109.68,1251.42C1104.74,1259.09 1092.22,1274.29 1088.78,1281.2C1089.52,1287.21 1086.26,1291.07 1081.19,1293.96L1079.27,1292.85C1059.26,1313.94 1038.37,1334.91 1013.05,1349.92C898.826,1416.5 767.2,1331.63 678.643,1259.36C646.681,1233.27 617.673,1201.02 583.724,1177.61C574.376,1171.16 560.79,1167 549.863,1164.3C556.221,1147.96 562.015,1135.04 578.351,1126.53C639.128,1094.85 791.446,1159.64 850.307,1186.29L923.738,1219.9C938.309,1226.53 954.886,1234.7 970.022,1239.36C968.776,1235.25 963.381,1221.3 965.158,1218.39C971.073,1217.62 976.742,1215.54 981.752,1212.3C994.266,1204.3 998.849,1194.57 1001.65,1180.84C1093.56,1124.92 995.469,967.733 823.46,1145.3C813.296,1139.79 795.033,1132.88 784.028,1128.62C725.866,1106.1 676.407,1092.19 614.028,1091.52C613.662,1081.44 615.666,1067.83 615.949,1056.53C606.15,1073.66 604.186,1073.92 597.238,1093.5C551.309,1104.84 531.527,1115.63 518.779,1163.18C500.977,1164.29 487.057,1169.93 474.197,1182.34C533.077,1180.08 544.329,1182.54 588.826,1220.28C610.206,1241.66 632.569,1262.03 655.844,1281.33C664.039,1288.09 689.501,1306.59 695.006,1312.38C678.189,1319.64 661.576,1324.01 643.839,1328.09C642.109,1328.49 632.799,1330.34 632.06,1330.72C596.319,1340.9 515.151,1344.35 480.237,1331.78C455.76,1323.96 436.614,1307.73 425.513,1284.13C381.803,1191.21 508.909,1058.47 585.566,1022.39C588.23,1019.32 618.884,1003.22 624.011,1000.9C650.298,1003.45 667.913,1008.54 696.994,1007.78L697.272,1006.44C700.776,1004.29 701.724,1006.52 707.529,1005.27L708.46,1003.38L706.854,1002.25L706.912,1000.74C689.737,993.47 665.314,990.139 646.436,982.185C548.689,941.004 402.712,874.05 421.573,744.428C428.134,699.341 455.293,666.599 491.067,640.901C495.178,628.677 496.381,604.124 498.194,590.301C515.848,455.693 608.139,338.125 743.66,304.617C825.48,284.522 911.243,287.226 991.635,312.436C1002.68,315.924 1018.17,320.364 1028.53,325.769C1030.74,326.927 1031.1,331.48 1031.58,334.174C1034.45,335.162 1033.42,334.244 1035.11,336.43C1034.79,338.963 1036.47,344.66 1037.11,347.412C1038.5,348.11 1039.35,348.82 1040.56,349.763C1041.58,346.997 1041.9,343.317 1043.26,341.945L1045.3,345.771L1045.78,342.424L1046.81,342.106C1046.99,342.78 1047.4,344.041 1047.41,344.664Z" style="fill:rgb(255,253,244);fill-rule:nonzero;"/>
            </g>
            <g transform="matrix(4.166667,0,0,4.166667,0,0)">
                <path d="M585.566,1022.39C588.23,1019.32 618.884,1003.22 624.011,1000.9C650.298,1003.45 667.913,1008.54 696.994,1007.78L697.272,1006.44C700.776,1004.29 701.724,1006.52 707.529,1005.27L708.46,1003.38L706.854,1002.25L706.912,1000.74C715.822,1002.57 724.911,1005.37 733.904,1006.4C767.983,1018.06 808.87,1017.87 844.464,1016.79C852.418,1016.54 868.256,1014.72 874.554,1015.74L874.527,1016.78C870.114,1018.95 865.123,1020.19 862.202,1021.68C792.405,1057.27 716.304,1079.41 639.068,1052.4C629.85,1049.17 588.352,1033.75 584.498,1026L585.985,1023.47L585.566,1022.39Z" style="fill:rgb(244,238,226);fill-rule:nonzero;"/>
            </g>
            <g transform="matrix(4.166667,0,0,4.166667,0,0)">
                <path d="M706.912,1000.74C715.822,1002.57 724.911,1005.37 733.904,1006.4C729.718,1008.82 703.522,1007.87 696.994,1007.78L697.272,1006.44C700.776,1004.29 701.724,1006.52 707.529,1005.27L708.46,1003.38L706.854,1002.25L706.912,1000.74Z" style="fill:rgb(18,20,20);fill-rule:nonzero;"/>
            </g>
            <g transform="matrix(4.166667,0,0,4.166667,0,0)">
                <path d="M1197.15,231.41L1200.02,230.214C1208.6,235.705 1208.63,269.819 1208.08,280.675C1205.73,327.407 1195.64,378.169 1177.7,421.4C1177.15,422.746 1174.07,424.917 1173.25,426.082C1166.26,418.262 1152.98,402.227 1147.38,394.023C1153.53,358.055 1162.57,322.642 1174.43,288.133C1179.37,273.566 1185.75,259.146 1190.45,244.822C1192.96,240.625 1193.28,237.179 1197.15,231.41Z" style="fill:rgb(244,238,226);fill-rule:nonzero;"/>
            </g>
            <g transform="matrix(4.166667,0,0,4.166667,0,0)">
                <path d="M588.826,1220.28C610.206,1241.66 632.569,1262.03 655.844,1281.33C664.039,1288.09 689.501,1306.59 695.006,1312.38C678.189,1319.64 661.576,1324.01 643.839,1328.09C642.109,1328.49 632.799,1330.34 632.06,1330.72C629.81,1328.98 626.658,1328.37 625.965,1325.19C618.785,1292.26 608.127,1262.63 591.27,1233.33C588.84,1229.11 587.232,1224.98 588.826,1220.28Z" style="fill:rgb(244,238,226);fill-rule:nonzero;"/>
            </g>
            <g transform="matrix(4.166667,0,0,4.166667,0,0)">
                <path d="M1031.58,334.174C1034.45,335.162 1033.42,334.244 1035.11,336.43C1034.79,338.963 1036.47,344.66 1037.11,347.412C1038.5,348.11 1039.35,348.82 1040.56,349.763C1041.58,346.997 1041.9,343.317 1043.26,341.945L1045.3,345.771L1045.78,342.424L1046.81,342.106C1046.99,342.78 1047.4,344.041 1047.41,344.664C1044.94,353.428 1043.79,363.058 1043.26,372.124C1037.71,359.306 1033.01,348.247 1031.58,334.174Z" style="fill:rgb(18,20,20);fill-rule:nonzero;"/>
            </g>
            <g transform="matrix(4.166667,0,0,4.166667,0,0)">
                <path d="M961.26,1007.47C970.084,1005.07 979.734,1003.68 988.821,1001.44C988.177,1003.73 987.404,1006.09 987.041,1008.42C978.336,1007.82 969.965,1007.65 961.26,1007.47Z" style="fill:rgb(18,20,20);fill-rule:nonzero;"/>
            </g>
            <g transform="matrix(4.166667,0,0,4.166667,0,0)">
                <path d="M1187.36,232.95C1191.11,230.365 1192.51,228.489 1197.05,226.496L1198.05,227.824L1197.15,231.41C1193.28,237.179 1192.96,240.625 1190.45,244.822L1189.18,243.848C1190.92,238.794 1190.21,237.091 1187.36,232.95Z" style="fill:rgb(18,20,20);fill-rule:nonzero;"/>
            </g>
            <g transform="matrix(4.166667,0,0,4.166667,0,0)">
                <path d="M1118.09,390.416C1126.6,403.261 1117.34,405.515 1120.43,413.932C1114.61,406.944 1117.04,398.846 1118.09,390.416Z" style="fill:rgb(22,31,29);fill-rule:nonzero;"/>
            </g>
            <g transform="matrix(4.166667,0,0,4.166667,0,0)">
                <path d="M1088.78,1281.2C1089.52,1287.21 1086.26,1291.07 1081.19,1293.96L1079.27,1292.85C1081.79,1288.73 1085.53,1284.86 1088.78,1281.2Z" style="fill:rgb(22,31,29);fill-rule:nonzero;"/>
            </g>
            <g transform="matrix(4.166667,0,0,4.166667,0,0)">
                <path d="M904.167,722.3C858.56,683.818 869.387,619.204 904.162,576.537C933.178,540.936 983.141,533.437 1018.92,564.252C1055.17,595.469 1060.24,658.738 1042.56,701.626C1039.95,706.511 1038.29,710.096 1034.76,714.418C1018.65,744.543 974.284,757.391 949.462,730.161C939.558,719.297 929.739,700.033 930.088,685.436C929.111,677.542 928.768,671.018 929.571,663.112C930.295,630.014 957.009,589.625 992.748,593.691C997.498,594.231 1002.94,597.755 1006.73,597.475C1005.03,590.828 994.737,582.159 989.356,578.701C978.715,571.862 961.768,569.669 949.573,573.224C904.129,586.471 879.47,653.609 890.614,696.41C893.268,706.601 898.352,714.016 904.167,722.3Z" style="fill:rgb(23,34,34);fill-rule:nonzero;"/>
            </g>
            <g transform="matrix(4.166667,0,0,4.166667,0,0)">
                <path d="M1034.76,714.418C1030.44,714.777 1030.33,717.289 1028.12,717.739C1029.41,712.021 1033.76,701.573 1039.53,699.369L1042.56,701.626C1039.95,706.511 1038.29,710.096 1034.76,714.418Z" style="fill:rgb(22,31,29);fill-rule:nonzero;"/>
            </g>
            <g transform="matrix(4.166667,0,0,4.166667,0,0)">
                <path d="M929.571,663.112L932.373,661.699C935.476,665.756 934.514,675.916 933.899,681.033C933.56,683.853 932.122,684.206 930.088,685.436C929.111,677.542 928.768,671.018 929.571,663.112Z" style="fill:rgb(22,31,29);fill-rule:nonzero;"/>
            </g>
            <g transform="matrix(4.166667,0,0,4.166667,0,0)">
                <path d="M1000.98,631.752C1001.84,631.729 1002.69,631.721 1003.55,631.728C1016.91,631.905 1016.01,646.159 1015.85,655.717C1012.82,661.505 1012.2,663.006 1006.6,666.326C984.59,668.352 990.558,642.15 1000.98,631.752Z" style="fill:rgb(255,253,244);fill-rule:nonzero;"/>
            </g>
            <g transform="matrix(4.166667,0,0,4.166667,0,0)">
                <path d="M730.843,706.177C755.707,703.439 791.898,710.628 810.272,728.872C815.049,733.616 816.17,738.216 817.846,744.424C811.451,770.223 776.732,794.878 752.305,801.162C755.305,824.026 759.127,846.194 772.492,865.676C777.49,865.782 782.488,865.84 787.487,865.852C827.577,865.851 866.587,854.227 897.422,828.162C906.045,820.873 915.405,811.079 923.468,802.99C915.192,802.183 907.127,800.445 898.752,799.384C916.325,789.91 938.492,779.946 957.318,796.034C965.931,803.395 966.334,813.937 966.529,824.576C960.625,820.911 954.663,817.339 948.647,813.862C934.302,830.027 918.871,844.338 900.458,855.755C892.189,861.002 883.425,865.426 874.293,868.963C821.068,890.177 745.293,889.688 692.092,867.668C675.077,860.626 654.627,844.839 648.627,827.212C647.441,823.728 643.251,811.192 644.611,808.305L646.189,808.616C647.023,809.959 647.887,811.284 648.782,812.588C670.885,844.576 709.479,855.379 745.275,862.097C736.16,841.549 731.912,825.095 731.77,802.347C664.225,775.29 644.05,722.106 730.843,706.177Z" style="fill:rgb(23,34,34);fill-rule:nonzero;"/>
            </g>
            <g transform="matrix(4.166667,0,0,4.166667,0,0)">
                <path d="M548.484,676.838C543.57,664.242 545.283,629.585 548.295,616.375C554.689,589.412 571.528,556.719 599.021,546.542C634.345,533.467 663.409,551.063 675.541,585.101C687.971,619.974 687.347,659.955 672.832,693.889C663.956,714.638 645.548,736.681 621.554,724.89C570.934,702.606 593.174,560.581 656.495,598.25C653.376,590.227 650.032,582.565 643.556,576.609C626.852,561.249 597.664,566.897 583.957,583.458C562.611,609.248 557.169,640.623 558.335,673.108L555.6,675.05L553.899,674.07L550.344,677.343L549.159,673.387L548.667,673.697L549.189,674.937L548.35,675.55L548.484,676.838Z" style="fill:rgb(23,34,34);fill-rule:nonzero;"/>
            </g>
            <g transform="matrix(4.166667,0,0,4.166667,0,0)">
                <path d="M650.638,629.801C669.153,629.717 667.318,652.569 657.201,663.581C636.37,668.553 644.139,639.328 650.638,629.801Z" style="fill:rgb(255,253,244);fill-rule:nonzero;"/>
            </g>
            <g transform="matrix(4.166667,0,0,4.166667,0,0)">
                <path d="M908.134,466.867C918.915,453.807 935.22,445.562 952.01,443.87C975.196,441.47 998.372,448.499 1016.32,463.375C1030.81,475.56 1037.99,489.68 1041.68,507.94C1020.24,487.329 982.059,468.808 951.771,469.917C938.209,470.414 931.45,472.361 918.675,476.476C912.673,481.012 903.71,483.788 893.133,492.465C896.476,485.319 902.279,471.421 908.134,466.867Z" style="fill:rgb(23,34,34);fill-rule:nonzero;"/>
            </g>
            <g transform="matrix(4.166667,0,0,4.166667,0,0)">
                <path d="M908.134,466.867L909.102,468.525C906.865,471.488 902.813,475.809 902.875,479.153L904.204,480.69C909.853,480.025 911.428,476.176 917.797,475.292L918.675,476.476C912.673,481.012 903.71,483.788 893.133,492.465C896.476,485.319 902.279,471.421 908.134,466.867Z" style="fill:rgb(18,20,20);fill-rule:nonzero;"/>
            </g>
            <g transform="matrix(4.166667,0,0,4.166667,0,0)">
                <path d="M560.511,494.642C569.287,474.123 576.735,461.187 597.327,450.525C626.861,435.231 657.134,447.684 671.003,476.69L675.058,488.937C668.851,485.537 663.288,482.608 656.914,479.543C653.166,479.098 637.584,473.256 630.433,472.622C605.344,470.398 579.938,479.99 560.511,494.642Z" style="fill:rgb(22,31,29);fill-rule:nonzero;"/>
            </g>
            <g transform="matrix(4.166667,0,0,4.166667,0,0)">
                <path d="M671.003,476.69L675.058,488.937C668.851,485.537 663.288,482.608 656.914,479.543C661.744,478.993 663.802,480.085 668.423,480.016L671.003,476.69Z" style="fill:rgb(18,20,20);fill-rule:nonzero;"/>
            </g>
            <g transform="matrix(4.166667,0,0,4.166667,0,0)">
                <path d="M726.745,909.265C733.227,911.394 743.788,919.725 751.622,922.86C791.1,938.663 816.598,931.652 854.921,922.296C850.96,925.383 846.257,928.172 841.982,930.874C830.194,938.779 821.723,943.871 808.196,948.26C772.469,959.85 738.183,947.586 726.745,909.265Z" style="fill:rgb(244,238,226);fill-rule:nonzero;"/>
            </g>
            <g transform="matrix(4.166667,0,0,4.166667,0,0)">
                <path d="M548.484,676.838L548.35,675.55L549.189,674.937L548.667,673.697L549.159,673.387L550.344,677.343L553.899,674.07L555.6,675.05L558.335,673.108C562.14,694.931 564.237,701.593 575.477,721.192C560.67,705.577 553.857,698.249 548.484,676.838Z" style="fill:rgb(18,20,20);fill-rule:nonzero;"/>
            </g>
            <g transform="matrix(4.166667,0,0,4.166667,0,0)">
                <path d="M1208.16,489.307C1233.56,446.2 1297.02,393.123 1340.99,369.638C1363.31,357.804 1386.96,348.676 1411.44,342.446C1497.21,320.505 1588.19,333.568 1664.32,378.757C1742.17,424.512 1798.81,499.133 1821.96,586.411C1842.89,668.58 1838.04,757.436 1793.94,831.653C1784.84,846.966 1764.04,874.537 1749.41,884.884C1734.34,903 1700.22,918.134 1677.38,923.304C1666.24,925.815 1654.87,927.103 1643.46,927.147C1627.67,927.341 1586.42,923.671 1570.4,914.633C1567.13,910.371 1566.21,904.368 1564.71,899.306C1544.37,830.604 1546.92,716.786 1629.1,690.484C1641.32,686.571 1658.32,683.564 1671.1,683.755C1587.34,649.8 1533.37,705.978 1522.65,787.163L1524.17,788.791C1523.31,797.978 1524.2,807.484 1524.25,816.752C1524.31,826.808 1523,837.47 1523.62,847.401L1522.56,848.694C1516.71,880.008 1568.37,1007.03 1582.04,1041.36C1633.98,1171.74 1654.36,1302.98 1606.61,1438.04C1583.19,1505.88 1542.75,1567.76 1485.54,1612.52C1428.9,1657.13 1359.32,1682.16 1287.24,1683.88C1271.86,1684.14 1233.38,1681.75 1218.95,1677.18C1221.14,1627.63 1218.32,1609.52 1213.52,1561.1C1210.16,1546.58 1208.42,1531.9 1204.68,1516.54C1200.25,1485.57 1179.14,1432.97 1168.9,1403.57C1157.68,1371.49 1150.31,1338.2 1146.96,1304.39C1146.13,1296.58 1143.49,1272.94 1144.06,1266.08C1146.88,1247.87 1159.15,1230.66 1166.23,1213.68C1192.1,1151.59 1193.67,1068.63 1148.34,1014.4L1147.72,1015.9C1140.06,1007.6 1129.13,1004.37 1127.48,993.155C1125.34,991.402 1123.29,990.235 1122.52,987.696C1124.86,985.029 1143.8,978.288 1148.46,976.105C1185.56,958.693 1219.84,933.656 1243.71,899.854C1249.26,891.998 1253.67,883.115 1258.55,874.829C1264.04,862.136 1268.25,851.002 1272.97,837.981C1277.42,841.307 1281.56,845.009 1286.08,848.422C1289.7,847.883 1292.26,850.548 1296.61,851.847L1301.29,845.965L1302.33,846.204C1309.34,833.247 1309.3,782.286 1307.54,766.901C1306.42,757.554 1304.48,748.324 1301.76,739.314C1291.06,703.493 1272.05,675.102 1246.31,648.494C1244.71,603.466 1224.73,531.25 1208.16,489.307Z" style="fill:rgb(255,253,244);fill-rule:nonzero;"/>
            </g>
            <g transform="matrix(4.166667,0,0,4.166667,0,0)">
                <path d="M1213.52,1561.1C1219.49,1558.85 1227.58,1560.55 1234.01,1560.96C1360.05,1568.92 1477.15,1472.48 1529.4,1365.17C1600.12,1219.94 1558.45,1082.81 1502.01,942.894C1469.16,861.454 1463.61,760.249 1499.4,678.8C1541.91,582.081 1683.28,539.665 1729,656.589C1748.15,706.882 1731.58,778.239 1689.36,812.43C1672.41,826.15 1657.59,831.037 1636.38,837.473C1662.86,863.009 1696.24,876.36 1733.28,870.681C1741.38,869.439 1756.7,864.326 1763.99,865.16C1766.18,870.247 1750.66,877.288 1749.41,884.884C1734.34,903 1700.22,918.134 1677.38,923.304C1666.24,925.815 1654.87,927.103 1643.46,927.147C1627.67,927.341 1586.42,923.671 1570.4,914.633C1567.13,910.371 1566.21,904.368 1564.71,899.306C1544.37,830.604 1546.92,716.786 1629.1,690.484C1641.32,686.571 1658.32,683.564 1671.1,683.755C1587.34,649.8 1533.37,705.978 1522.65,787.163L1524.17,788.791C1523.31,797.978 1524.2,807.484 1524.25,816.752C1524.31,826.808 1523,837.47 1523.62,847.401L1522.56,848.694C1516.71,880.008 1568.37,1007.03 1582.04,1041.36C1633.98,1171.74 1654.36,1302.98 1606.61,1438.04C1583.19,1505.88 1542.75,1567.76 1485.54,1612.52C1428.9,1657.13 1359.32,1682.16 1287.24,1683.88C1271.86,1684.14 1233.38,1681.75 1218.95,1677.18C1221.14,1627.63 1218.32,1609.52 1213.52,1561.1Z" style="fill:rgb(244,238,226);fill-rule:nonzero;"/>
            </g>
            <g transform="matrix(4.166667,0,0,4.166667,0,0)">
                <path d="M1522.65,787.163L1524.17,788.791C1523.31,797.978 1524.2,807.484 1524.25,816.752C1524.31,826.808 1523,837.47 1523.62,847.401L1522.56,848.694C1518.91,838.709 1519.23,796.637 1522.65,787.163Z" style="fill:rgb(18,20,20);fill-rule:nonzero;"/>
            </g>
            <g transform="matrix(4.166667,0,0,4.166667,0,0)">
                <path d="M1258.55,874.829C1260.81,875.325 1259.76,875.197 1261.72,875.263C1265.98,882.024 1264.7,911.913 1265.05,921.503C1265.85,949.952 1268.19,978.338 1272.04,1006.54C1276.04,1033.64 1281.36,1060.54 1287.98,1087.12C1301.55,1140.72 1317.36,1189.16 1323.43,1245.3C1333.94,1342.6 1308.72,1449.75 1223.25,1507.5C1216.85,1511.82 1211.41,1513.46 1204.68,1516.54C1200.25,1485.57 1179.14,1432.97 1168.9,1403.57C1157.68,1371.49 1150.31,1338.2 1146.96,1304.39C1146.13,1296.58 1143.49,1272.94 1144.06,1266.08C1146.88,1247.87 1159.15,1230.66 1166.23,1213.68C1192.1,1151.59 1193.67,1068.63 1148.34,1014.4L1147.72,1015.9C1140.06,1007.6 1129.13,1004.37 1127.48,993.155C1125.34,991.402 1123.29,990.235 1122.52,987.696C1124.86,985.029 1143.8,978.288 1148.46,976.105C1185.56,958.693 1219.84,933.656 1243.71,899.854C1249.26,891.998 1253.67,883.115 1258.55,874.829Z" style="fill:rgb(244,238,226);fill-rule:nonzero;"/>
            </g>
            <g transform="matrix(4.166667,0,0,4.166667,0,0)">
                <path d="M1127.48,993.155C1132.37,997.232 1145.46,1009.09 1148.34,1014.4L1147.72,1015.9C1140.06,1007.6 1129.13,1004.37 1127.48,993.155Z" style="fill:rgb(22,31,29);fill-rule:nonzero;"/>
            </g>
            <g transform="matrix(4.166667,0,0,4.166667,0,0)">
                <path d="M1286.08,848.422C1289.7,847.883 1292.26,850.548 1296.61,851.847L1301.29,845.965L1302.33,846.204C1302.07,852.794 1301.2,854.543 1298.96,860.523C1294.02,855.228 1291.69,852.958 1286.08,848.422Z" style="fill:rgb(18,20,20);fill-rule:nonzero;"/>
            </g>
            <g transform="matrix(4.166667,0,0,4.166667,0,0)">
                <path d="M1113.53,1308.82C1121.92,1375.56 1138.51,1419.36 1160.75,1482.02C1175.36,1523.18 1185.22,1587.25 1185.99,1630.64L1188.2,1631.23C1190.13,1638.48 1188.71,1654.01 1186.97,1661.48C1186.4,1663.93 1188.19,1668.1 1186.81,1673.11C1185.58,1672.01 1185.81,1668.76 1185.61,1666.52C1183.49,1684.3 1182.35,1702.08 1179.38,1719.77C1178.42,1725.5 1177.49,1731.08 1177.45,1736.9C1149.38,1741.61 1129.33,1750.66 1112.52,1774.15L1111.37,1775.76C1131.91,1769.43 1155.65,1764.87 1177.07,1763.94C1232.14,1761.53 1290.73,1794.55 1309,1848.07C1311.71,1855.97 1312.14,1862.21 1311.56,1870.55C1305.01,1872.59 1288.92,1878.97 1283.34,1877.33C1281.8,1875.32 1281.94,1866.15 1281.18,1861.67C1277.44,1839.77 1261.59,1813.73 1240.97,1804.28L1240.08,1807.01C1257.22,1824.65 1265.91,1845.91 1267.55,1871.04C1267.72,1873.68 1265.99,1879.03 1264.23,1879.7C1255.65,1882.93 1227.06,1883.03 1218.19,1883.08C1217.97,1859.9 1208.73,1830.26 1186.2,1819.39L1186.54,1821.99L1185.8,1822.54L1183.62,1821.02L1182.21,1822.04L1182.31,1823.45L1186.67,1824.26L1186.78,1825.54C1184.27,1827.3 1183.44,1827.54 1182.22,1830.48C1192.13,1851.22 1194.08,1860.9 1194.01,1883.67C1175.93,1883.81 1061.59,1874.79 1058.22,1861.89C1030.88,1757.14 938.41,1711.98 898.545,1611.2C893.708,1618.73 897.281,1620.77 892.888,1625.16C894.422,1645.66 899.795,1661.05 908.062,1679.47C896.35,1679.71 882.939,1682.17 871.528,1681.92C784.828,1680.01 679.317,1643.04 617.462,1582.35C612.685,1584.3 613.206,1583.1 611.269,1588.23C620.472,1605.69 631.541,1618.96 645.252,1633.07C674.686,1659.27 701.838,1675.71 738.503,1690.04C747.98,1693.75 758.453,1696.88 767.573,1700.5C775.337,1738.03 778.546,1785.69 785.172,1824.23C787.236,1841.47 777.998,1854.67 761.036,1857.28C703.201,1866.21 641.633,1867.43 583.357,1867.96C584.453,1856.92 586.906,1850.17 590.417,1839.69L589.115,1838.41L591.443,1833.42C594.226,1827.5 596.164,1825.82 592.221,1820.28C575.625,1831.6 568.965,1843.56 565.369,1862.98C565.068,1864.59 564.784,1866.2 564.517,1867.82C550.334,1867.87 518.506,1868.71 505.75,1866.75C505.925,1851.76 509.028,1841.79 514.562,1827.85L513.69,1826.69C513.737,1826.36 513.785,1826.04 513.833,1825.71L514.079,1824.28C514.677,1820.63 517.482,1817.16 517.424,1816.11C514.417,1817.63 515.518,1817.56 512.466,1817.65C512.575,1814.73 512.201,1816.15 514.428,1813.57L510.777,1813.26L511.13,1813.4L508.986,1813.81C494.999,1824.82 491.115,1850.46 484.993,1862.8C478.007,1864.77 467.696,1860.88 460.402,1858.8C449.591,1780.86 545.276,1750.77 606.186,1762.69C614.18,1764.26 623.756,1764.28 631.5,1767.09L634.261,1764.23C637.109,1763.66 636.132,1763.92 638.747,1762.34C639.756,1760.05 639.093,1758.78 638.532,1756.26C637.692,1755.22 631.039,1749.28 629.608,1747.85C620.625,1738.87 610.337,1729.84 601.928,1720.42C571.364,1686.29 549.441,1645.33 538.002,1600.97C534.69,1588.51 532.691,1576.28 529.717,1563.8L528.397,1564.34C527.897,1566.62 528.356,1566.14 527.046,1567.72L525.357,1566.33C523.769,1561.28 521.265,1549.03 523.041,1544.15C524.353,1545.94 524.248,1545.84 525.859,1547.46C525.862,1544.46 525.741,1542.28 526.333,1539.31L527.691,1539.84C523.123,1501.38 527.866,1411.93 540.466,1374.15C593.724,1373.99 646.587,1365 696.9,1347.53C704.41,1344.9 720.419,1339.01 726.995,1335.3C852.531,1418.06 981.176,1448.22 1095.08,1327.99C1101.09,1321.65 1107.98,1315.59 1113.53,1308.82Z" style="fill:rgb(255,253,244);fill-rule:nonzero;"/>
            </g>
            <g transform="matrix(4.166667,0,0,4.166667,0,0)">
                <path d="M645.252,1633.07C674.686,1659.27 701.838,1675.71 738.503,1690.04C747.98,1693.75 758.453,1696.88 767.573,1700.5C775.337,1738.03 778.546,1785.69 785.172,1824.23C783.723,1826.77 783.292,1827.6 781.435,1829.94L779.186,1830.03C748.233,1812.81 696.433,1736.74 675.978,1705.6C669.409,1695.6 641.808,1641.97 645.252,1633.07Z" style="fill:rgb(244,238,226);fill-rule:nonzero;"/>
            </g>
            <g transform="matrix(4.166667,0,0,4.166667,0,0)">
                <path d="M508.986,1813.81C519.059,1802.65 536.608,1792.8 551.639,1792.01L552.404,1792.87C548.42,1796.01 542.251,1799.39 537.653,1801.79C527.222,1807.22 520.993,1817.93 514.562,1827.85L513.69,1826.69C513.737,1826.36 513.785,1826.04 513.833,1825.71L514.079,1824.28C514.677,1820.63 517.482,1817.16 517.424,1816.11C514.417,1817.63 515.518,1817.56 512.466,1817.65C512.575,1814.73 512.201,1816.15 514.428,1813.57L510.777,1813.26L511.13,1813.4L508.986,1813.81Z" style="fill:rgb(18,20,20);fill-rule:nonzero;"/>
            </g>
            <g transform="matrix(4.166667,0,0,4.166667,0,0)">
                <path d="M1182.22,1830.48C1176.36,1820.59 1172.95,1815.18 1165.19,1806.75C1170.21,1809.54 1182.62,1815.96 1186.2,1819.39L1186.54,1821.99L1185.8,1822.54L1183.62,1821.02L1182.21,1822.04L1182.31,1823.45L1186.67,1824.26L1186.78,1825.54C1184.27,1827.3 1183.44,1827.54 1182.22,1830.48Z" style="fill:rgb(18,20,20);fill-rule:nonzero;"/>
            </g>
            <g transform="matrix(4.166667,0,0,4.166667,0,0)">
                <path d="M638.532,1756.26C645.882,1762.5 652.213,1768.19 660.329,1773.46C650.155,1770.53 641.949,1768.99 631.5,1767.09L634.261,1764.23C637.109,1763.66 636.132,1763.92 638.747,1762.34C639.756,1760.05 639.093,1758.78 638.532,1756.26Z" style="fill:rgb(18,20,20);fill-rule:nonzero;"/>
            </g>
            <g transform="matrix(4.166667,0,0,4.166667,0,0)">
                <path d="M529.717,1563.8L528.397,1564.34C527.897,1566.62 528.356,1566.14 527.046,1567.72L525.357,1566.33C523.769,1561.28 521.265,1549.03 523.041,1544.15C524.353,1545.94 524.248,1545.84 525.859,1547.46C525.862,1544.46 525.741,1542.28 526.333,1539.31L527.691,1539.84C527.956,1544.74 529.916,1561.27 529.717,1563.8Z" style="fill:rgb(22,31,29);fill-rule:nonzero;"/>
            </g>
            <g transform="matrix(4.166667,0,0,4.166667,0,0)">
                <path d="M592.221,1820.28C597.211,1817.04 602.336,1814.43 607.58,1811.63C600.55,1820.76 596.024,1829.7 590.417,1839.69L589.115,1838.41L591.443,1833.42C594.226,1827.5 596.164,1825.82 592.221,1820.28Z" style="fill:rgb(18,20,20);fill-rule:nonzero;"/>
            </g>
            <g transform="matrix(4.166667,0,0,4.166667,0,0)">
                <path d="M892.13,1594.52C894.301,1601.08 895.622,1604.98 898.545,1611.2C893.708,1618.73 897.281,1620.77 892.888,1625.16C891.313,1618.32 892.001,1602.21 892.13,1594.52Z" style="fill:rgb(18,20,20);fill-rule:nonzero;"/>
            </g>
            <g transform="matrix(4.166667,0,0,4.166667,0,0)">
                <path d="M1185.99,1630.64L1188.2,1631.23C1190.13,1638.48 1188.71,1654.01 1186.97,1661.48C1186.4,1663.93 1188.19,1668.1 1186.81,1673.11C1185.58,1672.01 1185.81,1668.76 1185.61,1666.52C1186.23,1655.94 1185.94,1641.43 1185.99,1630.64Z" style="fill:rgb(18,20,20);fill-rule:nonzero;"/>
            </g>
            <g transform="matrix(4.166667,0,0,4.166667,0,0)">
                <path d="M611.269,1588.23C607.072,1580.08 603.736,1571.68 600.223,1563.22C606.752,1572.01 609.579,1574.82 617.462,1582.35C612.685,1584.3 613.206,1583.1 611.269,1588.23Z" style="fill:rgb(18,20,20);fill-rule:nonzero;"/>
            </g>
            <g transform="matrix(4.166667,0,0,4.166667,0,0)">
                <path d="M1240.08,1807.01C1237.24,1805.14 1234.95,1804.14 1233.55,1801.14L1234.02,1801.83L1234.98,1800.39C1237.88,1801.69 1238.48,1802.35 1240.97,1804.28L1240.08,1807.01Z" style="fill:rgb(22,31,29);fill-rule:nonzero;"/>
            </g>
            <g transform="matrix(4.166667,0,0,4.166667,0,0)">
                <path d="M551.946,164.19C596.051,161.101 650.243,265.058 668.469,299.011C650.445,308.352 633.027,320.081 616.475,331.801C610.261,336.201 602.398,344.059 597.299,346.905C594.035,345.174 591.768,330.511 590.865,326.533C582.631,290.262 575.174,269.664 556.76,237.891C558.354,252.37 564.175,287.668 567.108,302.591C569.424,317.003 574.17,354.699 574.039,369.151C563.888,379.817 554.259,390.969 545.187,402.566C542.009,399.13 535.209,391.135 533.503,386.972C509.861,351.633 505.533,289.774 513.614,249.41C518.927,222.875 528.572,180.682 551.946,164.19Z" style="fill:rgb(255,253,244);fill-rule:nonzero;"/>
            </g>
            <g transform="matrix(4.166667,0,0,4.166667,0,0)">
                <path d="M567.108,302.591C569.424,317.003 574.17,354.699 574.039,369.151C563.888,379.817 554.259,390.969 545.187,402.566C542.009,399.13 535.209,391.135 533.503,386.972C533.712,366.405 551.643,331.831 562.064,313.948C565.11,313.207 564.182,313.752 566.62,312.057C566.736,308.899 566.898,305.743 567.108,302.591Z" style="fill:rgb(244,238,226);fill-rule:nonzero;"/>
            </g>
            <g transform="matrix(4.166667,0,0,4.166667,0,0)">
                <path d="M905.981,1124.34C932.547,1120.44 976.007,1136.98 968.782,1170.75C964.559,1190.49 943.366,1192.99 926.658,1188.47C906.006,1179.83 878.529,1169.06 858.727,1158.8C873.211,1138.41 882.508,1130.95 905.981,1124.34Z" style="fill:rgb(255,253,244);fill-rule:nonzero;"/>
            </g>
            <g transform="matrix(4.166667,0,0,4.166667,0,0)">
                <path d="M963.398,1090.27C996.952,1087.16 1017.72,1116.89 998.368,1147.74C994.399,1140.86 990.548,1135.37 985.092,1129.63C970.956,1115.48 940.144,1106.37 920.838,1105.3C937.732,1096.98 945.017,1093.76 963.398,1090.27Z" style="fill:rgb(255,253,244);fill-rule:nonzero;"/>
            </g>
        </g>
    </g>
    <g transform="matrix(1,0,0,1,-291.008847,-1582.931792)">
        <g transform="matrix(216.666667,0,0,216.666667,543.306086,1793.909889)">
            <path d="M0.172,-0.261L0.172,-0.371L0.335,-0.371C0.357,-0.371 0.376,-0.376 0.393,-0.385C0.41,-0.393 0.424,-0.406 0.434,-0.422C0.444,-0.439 0.449,-0.459 0.449,-0.482C0.449,-0.505 0.444,-0.525 0.434,-0.541C0.424,-0.558 0.41,-0.57 0.393,-0.579C0.376,-0.588 0.357,-0.592 0.335,-0.592L0.172,-0.592L0.172,-0.703L0.349,-0.703C0.394,-0.703 0.434,-0.694 0.469,-0.676C0.505,-0.658 0.533,-0.632 0.553,-0.599C0.574,-0.566 0.585,-0.527 0.585,-0.482C0.585,-0.437 0.574,-0.398 0.553,-0.364C0.533,-0.331 0.505,-0.306 0.469,-0.288C0.434,-0.27 0.394,-0.261 0.349,-0.261L0.172,-0.261ZM0.072,-0L0.072,-0.703L0.208,-0.703L0.208,-0L0.072,-0Z" style="fill:white;fill-rule:nonzero;"/>
        </g>
        <g transform="matrix(216.666667,0,0,216.666667,671.356086,1793.909889)">
            <path d="M0.058,-0L0.058,-0.483L0.189,-0.483L0.189,-0L0.058,-0ZM0.189,-0.267L0.138,-0.301C0.144,-0.36 0.162,-0.407 0.19,-0.441C0.219,-0.476 0.26,-0.493 0.314,-0.493C0.337,-0.493 0.359,-0.489 0.377,-0.481C0.396,-0.473 0.413,-0.461 0.427,-0.444L0.346,-0.35C0.338,-0.358 0.329,-0.364 0.319,-0.368C0.309,-0.372 0.297,-0.374 0.284,-0.374C0.256,-0.374 0.233,-0.365 0.215,-0.348C0.198,-0.33 0.189,-0.303 0.189,-0.267Z" style="fill:white;fill-rule:nonzero;"/>
        </g>
        <g transform="matrix(216.666667,0,0,216.666667,753.310253,1793.909889)">
            <path d="M0.289,0.011C0.238,0.011 0.193,-0 0.154,-0.022C0.114,-0.044 0.083,-0.074 0.06,-0.112C0.037,-0.15 0.026,-0.193 0.026,-0.241C0.026,-0.29 0.037,-0.332 0.06,-0.37C0.082,-0.408 0.113,-0.438 0.151,-0.46C0.19,-0.482 0.233,-0.493 0.28,-0.493C0.327,-0.493 0.368,-0.483 0.403,-0.462C0.439,-0.442 0.467,-0.413 0.487,-0.377C0.507,-0.34 0.517,-0.299 0.517,-0.253C0.517,-0.244 0.517,-0.235 0.516,-0.226C0.515,-0.217 0.513,-0.207 0.511,-0.196L0.104,-0.195L0.104,-0.293L0.45,-0.293L0.397,-0.253C0.396,-0.282 0.39,-0.306 0.381,-0.325C0.372,-0.344 0.359,-0.359 0.342,-0.369C0.325,-0.379 0.305,-0.385 0.28,-0.385C0.254,-0.385 0.231,-0.379 0.212,-0.367C0.193,-0.356 0.178,-0.34 0.168,-0.319C0.157,-0.298 0.152,-0.273 0.152,-0.243C0.152,-0.214 0.158,-0.189 0.169,-0.167C0.18,-0.146 0.196,-0.129 0.216,-0.117C0.237,-0.106 0.261,-0.1 0.288,-0.1C0.312,-0.1 0.335,-0.104 0.355,-0.113C0.375,-0.121 0.392,-0.134 0.407,-0.15L0.484,-0.073C0.46,-0.045 0.432,-0.024 0.398,-0.011C0.364,0.004 0.328,0.011 0.289,0.011Z" style="fill:white;fill-rule:nonzero;"/>
        </g>
        <g transform="matrix(216.666667,0,0,216.666667,865.056086,1793.909889)">
            <path d="M0.224,0.011C0.197,0.011 0.17,0.008 0.144,0C0.117,-0.007 0.093,-0.017 0.071,-0.03C0.049,-0.044 0.03,-0.059 0.014,-0.078L0.092,-0.157C0.109,-0.138 0.128,-0.124 0.15,-0.115C0.172,-0.105 0.196,-0.1 0.223,-0.101C0.244,-0.1 0.26,-0.104 0.271,-0.11C0.282,-0.116 0.288,-0.125 0.288,-0.137C0.288,-0.15 0.282,-0.161 0.27,-0.168C0.258,-0.175 0.243,-0.181 0.225,-0.186C0.206,-0.192 0.187,-0.197 0.166,-0.203C0.146,-0.209 0.126,-0.218 0.108,-0.228C0.089,-0.239 0.074,-0.253 0.062,-0.272C0.051,-0.29 0.045,-0.314 0.045,-0.343C0.045,-0.374 0.052,-0.401 0.068,-0.423C0.083,-0.446 0.104,-0.463 0.132,-0.476C0.16,-0.488 0.193,-0.495 0.231,-0.495C0.271,-0.495 0.307,-0.488 0.339,-0.474C0.372,-0.46 0.399,-0.439 0.419,-0.411L0.341,-0.332C0.326,-0.35 0.31,-0.363 0.291,-0.371C0.273,-0.379 0.253,-0.383 0.232,-0.383C0.213,-0.383 0.198,-0.38 0.187,-0.374C0.177,-0.368 0.172,-0.36 0.172,-0.349C0.172,-0.337 0.178,-0.328 0.19,-0.321C0.201,-0.315 0.216,-0.309 0.235,-0.304C0.253,-0.299 0.273,-0.293 0.293,-0.287C0.314,-0.28 0.333,-0.271 0.352,-0.26C0.37,-0.249 0.385,-0.234 0.397,-0.215C0.408,-0.197 0.414,-0.172 0.414,-0.143C0.414,-0.095 0.397,-0.058 0.363,-0.03C0.329,-0.003 0.283,0.011 0.224,0.011Z" style="fill:white;fill-rule:nonzero;"/>
        </g>
        <g transform="matrix(216.666667,0,0,216.666667,955.785253,1793.909889)">
            <path d="M0.224,0.011C0.197,0.011 0.17,0.008 0.144,0C0.117,-0.007 0.093,-0.017 0.071,-0.03C0.049,-0.044 0.03,-0.059 0.014,-0.078L0.092,-0.157C0.109,-0.138 0.128,-0.124 0.15,-0.115C0.172,-0.105 0.196,-0.1 0.223,-0.101C0.244,-0.1 0.26,-0.104 0.271,-0.11C0.282,-0.116 0.288,-0.125 0.288,-0.137C0.288,-0.15 0.282,-0.161 0.27,-0.168C0.258,-0.175 0.243,-0.181 0.225,-0.186C0.206,-0.192 0.187,-0.197 0.166,-0.203C0.146,-0.209 0.126,-0.218 0.108,-0.228C0.089,-0.239 0.074,-0.253 0.062,-0.272C0.051,-0.29 0.045,-0.314 0.045,-0.343C0.045,-0.374 0.052,-0.401 0.068,-0.423C0.083,-0.446 0.104,-0.463 0.132,-0.476C0.16,-0.488 0.193,-0.495 0.231,-0.495C0.271,-0.495 0.307,-0.488 0.339,-0.474C0.372,-0.46 0.399,-0.439 0.419,-0.411L0.341,-0.332C0.326,-0.35 0.31,-0.363 0.291,-0.371C0.273,-0.379 0.253,-0.383 0.232,-0.383C0.213,-0.383 0.198,-0.38 0.187,-0.374C0.177,-0.368 0.172,-0.36 0.172,-0.349C0.172,-0.337 0.178,-0.328 0.19,-0.321C0.201,-0.315 0.216,-0.309 0.235,-0.304C0.253,-0.299 0.273,-0.293 0.293,-0.287C0.314,-0.28 0.333,-0.271 0.352,-0.26C0.37,-0.249 0.385,-0.234 0.397,-0.215C0.408,-0.197 0.414,-0.172 0.414,-0.143C0.414,-0.095 0.397,-0.058 0.363,-0.03C0.329,-0.003 0.283,0.011 0.224,0.011Z" style="fill:white;fill-rule:nonzero;"/>
        </g>
        <g transform="matrix(216.666667,0,0,216.666667,1046.514419,1793.909889)">
            <path d="M0.172,-0.261L0.172,-0.371L0.335,-0.371C0.357,-0.371 0.376,-0.376 0.393,-0.385C0.41,-0.393 0.424,-0.406 0.434,-0.422C0.444,-0.439 0.449,-0.459 0.449,-0.482C0.449,-0.505 0.444,-0.525 0.434,-0.541C0.424,-0.558 0.41,-0.57 0.393,-0.579C0.376,-0.588 0.357,-0.592 0.335,-0.592L0.172,-0.592L0.172,-0.703L0.349,-0.703C0.394,-0.703 0.434,-0.694 0.469,-0.676C0.505,-0.658 0.533,-0.632 0.553,-0.599C0.574,-0.566 0.585,-0.527 0.585,-0.482C0.585,-0.437 0.574,-0.398 0.553,-0.364C0.533,-0.331 0.505,-0.306 0.469,-0.288C0.434,-0.27 0.394,-0.261 0.349,-0.261L0.172,-0.261ZM0.072,-0L0.072,-0.703L0.208,-0.703L0.208,-0L0.072,-0Z" style="fill:white;fill-rule:nonzero;"/>
        </g>
        <g transform="matrix(216.666667,0,0,216.666667,1174.564419,1793.909889)">
            <path d="M0.058,-0L0.058,-0.483L0.189,-0.483L0.189,-0L0.058,-0ZM0.189,-0.267L0.138,-0.301C0.144,-0.36 0.162,-0.407 0.19,-0.441C0.219,-0.476 0.26,-0.493 0.314,-0.493C0.337,-0.493 0.359,-0.489 0.377,-0.481C0.396,-0.473 0.413,-0.461 0.427,-0.444L0.346,-0.35C0.338,-0.358 0.329,-0.364 0.319,-0.368C0.309,-0.372 0.297,-0.374 0.284,-0.374C0.256,-0.374 0.233,-0.365 0.215,-0.348C0.198,-0.33 0.189,-0.303 0.189,-0.267Z" style="fill:white;fill-rule:nonzero;"/>
        </g>
        <g transform="matrix(216.666667,0,0,216.666667,1259.335253,1793.909889)">
            <path d="M0.058,-0L0.058,-0.483L0.19,-0.483L0.19,-0L0.058,-0ZM0.124,-0.56C0.103,-0.56 0.085,-0.568 0.071,-0.582C0.057,-0.597 0.05,-0.614 0.05,-0.636C0.05,-0.657 0.057,-0.674 0.071,-0.689C0.085,-0.703 0.103,-0.711 0.124,-0.711C0.146,-0.711 0.163,-0.703 0.177,-0.689C0.191,-0.674 0.198,-0.657 0.198,-0.636C0.198,-0.614 0.191,-0.597 0.177,-0.582C0.163,-0.568 0.146,-0.56 0.124,-0.56Z" style="fill:white;fill-rule:nonzero;"/>
        </g>
        <g transform="matrix(216.666667,0,0,216.666667,1307.543586,1793.909889)">
            <path d="M0.058,-0L0.058,-0.483L0.189,-0.483L0.189,-0L0.058,-0ZM0.372,-0L0.372,-0.285C0.372,-0.313 0.364,-0.335 0.346,-0.351C0.329,-0.366 0.307,-0.374 0.281,-0.374C0.264,-0.374 0.248,-0.371 0.234,-0.364C0.22,-0.357 0.209,-0.346 0.201,-0.333C0.193,-0.32 0.189,-0.304 0.189,-0.285L0.138,-0.31C0.138,-0.347 0.146,-0.38 0.162,-0.407C0.179,-0.434 0.201,-0.455 0.229,-0.47C0.257,-0.485 0.289,-0.493 0.324,-0.493C0.357,-0.493 0.388,-0.486 0.415,-0.471C0.442,-0.456 0.464,-0.434 0.48,-0.407C0.496,-0.38 0.504,-0.348 0.504,-0.31L0.504,-0L0.372,-0ZM0.688,-0L0.688,-0.285C0.688,-0.313 0.679,-0.335 0.661,-0.351C0.644,-0.366 0.622,-0.374 0.596,-0.374C0.579,-0.374 0.563,-0.371 0.549,-0.364C0.535,-0.357 0.524,-0.346 0.516,-0.333C0.508,-0.32 0.504,-0.304 0.504,-0.285L0.429,-0.303C0.431,-0.342 0.442,-0.375 0.46,-0.404C0.478,-0.432 0.501,-0.454 0.531,-0.47C0.56,-0.485 0.593,-0.493 0.629,-0.493C0.665,-0.493 0.697,-0.485 0.726,-0.47C0.754,-0.455 0.777,-0.434 0.794,-0.406C0.811,-0.378 0.819,-0.345 0.819,-0.305L0.819,-0L0.688,-0Z" style="fill:white;fill-rule:nonzero;"/>
        </g>
        <g transform="matrix(216.666667,0,0,216.666667,1489.976919,1793.909889)">
            <path d="M0.289,0.011C0.238,0.011 0.193,-0 0.154,-0.022C0.114,-0.044 0.083,-0.074 0.06,-0.112C0.037,-0.15 0.026,-0.193 0.026,-0.241C0.026,-0.29 0.037,-0.332 0.06,-0.37C0.082,-0.408 0.113,-0.438 0.151,-0.46C0.19,-0.482 0.233,-0.493 0.28,-0.493C0.327,-0.493 0.368,-0.483 0.403,-0.462C0.439,-0.442 0.467,-0.413 0.487,-0.377C0.507,-0.34 0.517,-0.299 0.517,-0.253C0.517,-0.244 0.517,-0.235 0.516,-0.226C0.515,-0.217 0.513,-0.207 0.511,-0.196L0.104,-0.195L0.104,-0.293L0.45,-0.293L0.397,-0.253C0.396,-0.282 0.39,-0.306 0.381,-0.325C0.372,-0.344 0.359,-0.359 0.342,-0.369C0.325,-0.379 0.305,-0.385 0.28,-0.385C0.254,-0.385 0.231,-0.379 0.212,-0.367C0.193,-0.356 0.178,-0.34 0.168,-0.319C0.157,-0.298 0.152,-0.273 0.152,-0.243C0.152,-0.214 0.158,-0.189 0.169,-0.167C0.18,-0.146 0.196,-0.129 0.216,-0.117C0.237,-0.106 0.261,-0.1 0.288,-0.1C0.312,-0.1 0.335,-0.104 0.355,-0.113C0.375,-0.121 0.392,-0.134 0.407,-0.15L0.484,-0.073C0.46,-0.045 0.432,-0.024 0.398,-0.011C0.364,0.004 0.328,0.011 0.289,0.011Z" style="fill:white;fill-rule:nonzero;"/>
        </g>
        <g transform="matrix(216.666667,0,0,216.666667,1601.722753,1793.909889)">
            <path d="M0.058,-0L0.058,-0.483L0.189,-0.483L0.189,-0L0.058,-0ZM0.189,-0.267L0.138,-0.301C0.144,-0.36 0.162,-0.407 0.19,-0.441C0.219,-0.476 0.26,-0.493 0.314,-0.493C0.337,-0.493 0.359,-0.489 0.377,-0.481C0.396,-0.473 0.413,-0.461 0.427,-0.444L0.346,-0.35C0.338,-0.358 0.329,-0.364 0.319,-0.368C0.309,-0.372 0.297,-0.374 0.284,-0.374C0.256,-0.374 0.233,-0.365 0.215,-0.348C0.198,-0.33 0.189,-0.303 0.189,-0.267Z" style="fill:white;fill-rule:nonzero;"/>
        </g>
        <g transform="matrix(216.666667,0,0,216.666667,1695.810253,1793.909889)">
        </g>
    </g>
</svg>
