<?xml version="1.0" encoding="utf-8" ?><svg xmlns="http://www.w3.org/2000/svg" xmlns:xlink="http://www.w3.org/1999/xlink" width="665" height="665" viewBox="0 0 665 665"><path fill="#9CA1A7" d="M54.0453 3.3192C88.5682 -1.20547 125.395 73.325 128.005 73.9105C129.435 74.2311 134.177 72.0518 135.662 71.5393C143.28 68.9229 151.12 67.0085 159.087 65.8199C186.781 61.3359 215.099 62.5397 242.314 69.3581C246.69 70.4795 251.17 72.1437 255.505 73.4588C255.772 73.5397 256.881 73.7724 256.943 73.693C258.507 71.681 260.769 67.6686 261.967 65.6837C274.623 44.7142 290.569 19.8402 312.157 7.1668C317.786 3.86195 325.944 2.23433 332.159 4.4471C340.639 7.46658 345.334 13.3725 349.437 21.1188C352.611 27.1117 354.36 35.0619 355.594 41.5718C360.472 67.3144 356.743 94.6483 347.497 119C345.776 123.53 343.871 127.815 341.737 132.192C340.423 134.887 338.148 138.389 337.258 141.133C337.474 142.928 343.644 154.52 344.848 157.153C346.774 161.388 348.463 165.726 349.907 170.149C352.169 176.874 354.013 183.732 355.428 190.684C356.419 195.615 357.181 200.024 357.795 205.425C358.536 211.954 366.572 217.462 369.979 223.094C372.414 227.121 374.488 231.564 376.806 235.194L377.055 235.581C377.144 214.367 393.719 179.505 405.005 161.341C411.698 150.567 422.958 138.298 432.591 130.07C451.323 113.762 474.126 102.836 498.573 98.4559C519.015 94.6203 545.484 94.5752 565.826 99.6745C582.494 103.853 601.229 113.862 613.928 125.564C640.828 150.106 656.627 184.507 657.714 220.904C659.978 285.069 624.812 337.345 556.091 338.847C555.284 338.784 554.927 339.936 555.048 340.499C566.767 395.169 568.716 454.669 540.723 504.994C539.074 507.959 537.15 510.769 535.492 513.702C519.245 537.182 502.168 552.976 476.335 566.028C444.915 581.753 408.236 587.664 373.361 587.893C370.265 587.913 361.553 588.283 359.23 587.327L358.756 587.584C359.385 589.311 361.884 589.917 363.256 591.019C386.334 609.181 387.758 656.303 351.976 659.76C328.359 662.041 303.572 660.212 279.795 660.728C275.594 660.405 270.655 660.419 266.543 659.394C238.2 652.324 238.499 618.474 232.473 595.625C231.895 593.435 231.372 590.92 231.111 588.939C226.405 588.832 222.512 589.446 217.877 589.776C212.3 590.331 206.276 589.581 200.757 589.945C190.788 590.603 180.742 588.832 170.952 588.92C170.937 594.395 170.015 600.614 169.517 606.127C168.127 621.527 166.353 639.353 155.236 651.178C148.419 658.428 138.761 660.775 129.106 660.767C114.586 660.755 100.088 660.9 85.5331 660.803C72.7614 660.422 59.3832 661.71 46.762 659.347C30.8174 656.362 21.184 642.401 20.9556 626.748C20.7706 614.066 25.1705 604.563 33.7229 595.461C39.6713 589.131 51.759 583.135 60.4771 583.132C58.6701 576.222 56.5696 569.035 54.8581 562.075C49.0511 539.144 44.7632 515.855 42.0226 492.359C37.1486 448.21 40.8551 401.37 56.9212 359.565C58.237 356.142 59.2899 352.93 61.6099 350.038C59.6996 348.032 56.6473 345.732 54.3666 343.981C21.6554 318.86 -9.78293 268.174 12.5114 227.223C15.8107 221.163 21.7738 213.341 26.8973 208.703C27.0113 206.616 27.2644 204.693 27.5853 202.624C30.4312 184.273 35.1107 165.92 43.5025 149.27C44.7529 146.79 45.9489 144.278 47.1751 141.791C41.9265 134.922 35.8224 118.991 33.2035 110.062C25.1027 82.4452 21.9782 46.3988 34.6936 19.7277C39.382 9.89341 44.0853 6.5464 54.0453 3.3192ZM271.494 111.211C260.609 105.619 247.169 99.4099 235.398 96.4996C194.532 86.3952 147.305 89.8401 112.033 114.391C93.3627 127.386 77.936 142.63 67.7095 163.25C58.9206 180.531 53.3752 203.981 52.7082 223.46L52.3988 223.793C50.4628 225.839 47.5245 227.962 45.2867 229.976C17.6174 254.875 41.467 294.484 62.5771 314.752C70.6835 322.535 80.8669 330.483 90.7725 335.98C92.4369 336.905 97.5356 339.452 98.0452 340.796C97.6155 343.419 92.0426 351.548 90.4541 354.695C87.4608 360.626 84.0167 366.837 81.5458 373.01C66.136 411.509 65.2235 460.798 70.2806 501.537C72.3698 519.226 75.679 536.75 80.1845 553.983C81.4781 559.197 82.8812 564.383 84.393 569.537C87.3183 579.299 94.7428 596.465 84.0586 604.224C74.3507 611.274 58.7081 605.775 51.1585 617.7C48.5393 621.708 47.5648 624.469 48.9349 629.083C55.4412 634.45 57.0843 633.118 65.2439 633.123L83.5915 633.122L116.464 633.126C121.833 633.126 128.685 633.312 133.913 633.052C138.253 630.215 139.727 626.534 140.183 621.46C142.463 609.921 143.722 596.147 145.043 584.383C146.054 575.387 147.127 564.532 147.211 555.544C171.109 563.004 199.427 563.505 224.245 561.407C229.274 560.982 234.283 560.61 239.254 559.677C242.857 559 246.824 557.674 250.442 557.416C251.273 557.356 251.526 557.314 251.983 558.053C253.394 560.34 254.088 566.51 254.67 569.286C257.367 582.775 260.206 596.236 263.184 609.667C263.746 612.199 264.733 615.734 265.138 618.172C268.064 635.793 274.133 633.117 289.27 633.117L326.495 633.113C332.361 633.109 341.753 632.828 347.331 633.411C348.802 632.611 350.249 631.834 351.689 630.975C353.51 627.339 353.119 625.284 351.884 621.447C350.263 616.413 347.189 612.727 342.485 610.272C336.435 607.116 330.691 608.913 324.683 606.123C321.099 604.459 318.849 602.653 317.298 598.818C315.87 595.285 316.005 590.958 316.436 587.209C318.103 577.633 320.688 568.087 322.685 558.574C326.676 539.561 330.382 519.665 332.066 500.365C336.399 450.711 332.438 400.272 307.783 355.874C305.906 352.493 304.084 348.996 301.955 345.756C300.24 343.008 296.921 338.452 295.715 335.72C298.479 333.481 301.804 331.291 304.733 329.11C309.815 325.351 314.712 321.348 319.406 317.114C339.503 299.067 364.589 259.411 342.48 234.191C340.492 231.923 334.396 225.755 331.562 223.347C330.847 217.815 330.558 208.672 329.634 202.713C328.855 197.684 327.549 191.292 326.157 186.463C322.698 174.461 317.309 162.842 311.054 152.068C309.202 148.879 304.619 143.282 303.449 140.58L303.674 140.209C306.826 135.099 310.755 130.887 313.795 125.42C327.554 100.682 333.572 71.4516 328.336 43.4495C327.671 39.894 326.267 36.1259 324.784 32.8548L324.08 32.6752C317.009 38.2574 313.683 41.4753 307.935 48.4652C296.158 62.7877 286.721 78.3666 278.673 95.0434C276.645 99.2103 272.635 107.006 271.494 111.211ZM359.949 474.478C359.877 476.955 359.387 484.842 359.631 486.678L360.128 486.989C361.346 486.609 362.686 485.247 363.691 484.415C387.154 464.98 389.038 427.411 387.319 399.319C385.195 364.589 379.396 330.667 375.322 296.18C375.095 294.227 375.487 285.586 374.51 284.651C372.76 287.703 372.078 290.795 370.719 293.978C363.173 311.639 350.229 327.361 335.644 339.702C334.607 340.58 333.673 341.639 332.72 342.599C336.383 348.097 339.429 355.818 342.013 362.049C353.303 389.273 358.962 419.354 359.85 448.75C360.11 457.368 359.99 465.933 359.949 474.478ZM523.503 122.877C517.97 123.803 512.47 124.124 506.939 125.068C476.378 130.286 449.226 146.837 431.087 172.132C425.228 180.397 420.215 189.231 416.127 198.501C389.322 257.912 407.347 318.387 413.051 380.12C415.314 404.606 416.656 430.332 410.822 454.426C407.474 468.495 402.64 481.28 393.438 492.668C385.931 501.959 376.145 509.563 365.802 515.384C363.052 516.932 359.655 518.494 357.163 520.058C356.075 528.665 354.061 537.991 352.347 546.545C351.515 550.699 350.14 555.06 349.449 559.214L349.947 559.202C354.023 559.129 357.789 559.969 361.666 560.078C368.611 560.274 375.802 560.145 382.754 560.129C385.973 560.121 389.726 559.488 392.904 559.303C431.769 557.038 472.071 544.204 499.381 515.278C504.032 510.353 509.596 502.832 513.324 496.981C529.181 472.173 535.923 439.662 536.106 410.472C536.133 406.089 535.651 401.709 535.368 397.338C534.627 385.923 533.561 374.52 531.607 363.235C528.483 345.199 523.306 327.393 522.773 309.015C521.858 277.419 539.254 241.189 572.383 233.806C576.221 232.951 580.02 233.288 583.377 235.468C586.51 237.503 588.822 240.322 589.559 244.034C590.312 247.823 589.868 251.929 587.68 255.183C584.545 259.846 578.084 260.363 573.391 262.69C569.683 264.529 567.201 266.922 564.379 269.881C553.539 281.248 549.939 295.741 549.707 311.009C598.245 312.743 627.679 281.755 630.118 234.282C631.614 205.17 624.057 177.556 604.766 155.195C583.191 130.187 555.732 122.217 523.503 122.877ZM81.8275 102.779L82.1458 102.444C85.0877 99.3938 97.0475 90.3833 100.72 88.7079C101.307 87.5154 98.3079 82.6011 97.5325 81.097C89.7054 65.9138 80.0392 50.9799 67.6993 39.0656C65.4492 36.9055 61.8679 33.4401 59.1062 31.9489C57.0053 35.5579 55.6683 42.1145 55.0629 46.2743C52.558 63.3341 53.5877 80.7267 58.088 97.3718C58.9356 100.557 63.7383 115.738 65.6684 117.299C70.4947 114.472 75.7131 106.467 81.8275 102.779Z"/><path fill="#9CA1A7" d="M215.224 284.806C221.261 284.563 227.025 285.795 230.013 291.278C237.611 305.216 231.203 318.502 218.738 326.39C207.19 333.697 198.828 333.766 185.76 335.259C181.665 335.726 178.324 336.699 174.232 336.881C171.531 336.991 168.826 336.779 166.175 336.248C158.393 335.228 150.916 331.819 148.445 323.581C145.497 313.748 149.157 301.434 159.928 298.552C164.242 297.398 168.304 298.744 172.629 298.793C180.866 297.626 191.072 297.316 198.988 295.183C205.155 293.522 207.051 286.728 215.224 284.806Z"/><path fill="#9CA1A7" d="M115.253 190.34C128.007 188.633 136.686 199.871 139.845 210.871C143.047 222.022 142.019 232.727 136.586 243.018C133.892 248.121 130.081 252.172 124.387 253.751C123.333 254.038 123.066 254.142 122.124 254.679C117.545 255.349 113.141 255.026 108.97 252.568C99.5254 247.003 95.7 234.456 95.1935 224.139C94.8294 216.722 97.1622 207.234 100.876 200.806C103.433 196.38 107.323 192.525 112.465 191.339C113.497 191.089 114.001 190.918 114.958 190.479L115.253 190.34Z"/><path fill="#9CA1A7" d="M254.822 190.738C256.534 191.06 257.803 191.122 259.531 191.637C284.972 199.219 281.281 256.173 252.883 254.579C251.122 254.195 249.504 253.821 247.798 253.212C226.823 245.698 224.767 210.106 239.934 196.28C245.111 191.561 248.23 191.421 254.822 190.738Z"/></svg>